<svg width="56" height="50" viewBox="0 0 56 50" fill="none" xmlns="http://www.w3.org/2000/svg">
<path d="M28 10.4167C23.6681 10.4167 19.5137 11.9531 16.4506 14.688C13.3875 17.4229 11.6667 21.1323 11.6667 25V27.0833H16.52C18.0833 27.0833 18.8533 27.0833 19.46 27.3542C19.9967 27.6042 20.4167 27.9792 20.6967 28.4583C21 28.9792 21 29.6875 21 31.0833V39.75C21 41.1458 21 41.8333 20.6967 42.375C20.4167 42.8542 19.9967 43.2292 19.46 43.4792C18.8767 43.75 18.0833 43.75 16.52 43.75H14.4667C11.8533 43.75 10.5467 43.75 9.56667 43.2917C8.68483 42.8965 7.96597 42.262 7.51333 41.4792C7.04667 40.625 7 39.5625 7 37.5V25C7 22.5377 7.54318 20.0995 8.59853 17.8247C9.65388 15.5498 11.2007 13.4828 13.1508 11.7417C15.1008 10.0006 17.4158 8.61953 19.9636 7.67726C22.5115 6.73498 25.2422 6.25 28 6.25C30.7578 6.25 33.4885 6.73498 36.0364 7.67726C38.5842 8.61953 40.8992 10.0006 42.8492 11.7417C44.7993 13.4828 46.3461 15.5498 47.4015 17.8247C48.4568 20.0995 49 22.5377 49 25V37.5C49 39.5625 48.9767 40.625 48.4867 41.4583C48.0441 42.2457 47.3334 42.8875 46.4567 43.2917C45.4533 43.75 44.1467 43.75 41.5333 43.75H39.48C37.9167 43.75 37.1467 43.75 36.54 43.4792C36.0063 43.2384 35.5729 42.8515 35.3033 42.375C35 41.8542 35 41.1458 35 39.75V31.0833C35 29.6875 35 29 35.3033 28.4583C35.5833 27.9792 36.0033 27.6042 36.54 27.3542C37.1233 27.0833 37.9167 27.0833 39.48 27.0833H44.3333V25C44.3333 21.1323 42.6125 17.4229 39.5494 14.688C36.4863 11.9531 32.3319 10.4167 28 10.4167Z" fill="black"/>
</svg>
